<svg width="346" height="412" viewBox="-1 -1 346 412" xmlns="http://www.w3.org/2000/svg" xmlns:xlink="http://www.w3.org/1999/xlink" overflow="hidden"><defs><marker refX="8" refY="6" markerWidth="10" markerHeight="12" orient="auto" viewBox="0 0 10 12" id="thin-arrow" overflow="hidden"><path d="M2 1 8 6 2 11" stroke="#D60059" stroke-width="2.2" stroke-linecap="round" stroke-linejoin="round" fill="none"/></marker></defs><g id="SAR_03_Range_migration_correction" font-family="Segoe UI,Arial" transform="translate(-788 -117)"><rect x="788" y="117" rx="7" width="344" height="410" id="card-element-0" stroke="#DDE4EB" fill="#FFFFFF"/><text id="card-element-1" fill="#D60059" font-weight="600" font-size="17" x="812" y="151">03</text><text id="card-element-2" fill="#183347" font-weight="600" font-size="27" x="812" y="187">Range migration</text><text id="card-element-3" fill="#183347" font-weight="600" font-size="27" x="812" y="218">correction</text><g id="card-element-4" transform="translate(815 249)"><path d="M12 20 12 160 103 160" stroke="#183347" stroke-width="2.7" stroke-linecap="round" stroke-linejoin="round" fill="none"/><path d="M184 20 184 160 275 160" stroke="#183347" stroke-width="2.7" stroke-linecap="round" stroke-linejoin="round" fill="none"/><path d="M35 43C71 76.3333 88.6667 109.333 88 142" stroke="#183347" stroke-width="2.2" stroke-dasharray="5 5" fill="none"/><path d="M231 43 231 142" stroke="#D60059" stroke-width="2.2" stroke-dasharray="5 5" fill="none"/><circle cx="35" cy="43" r="6" fill="#183347"/><circle cx="72" cy="92" r="6" fill="#183347"/><circle cx="88" cy="142" r="6" fill="#183347"/><circle cx="231" cy="43" r="6" fill="#D60059"/><circle cx="231" cy="92" r="6" fill="#D60059"/><circle cx="231" cy="142" r="6" fill="#D60059"/><path d="M125 91 158 91" stroke="#D60059" stroke-width="2.2" stroke-linecap="round" fill="none" marker-end="url(#thin-arrow)"/></g><text id="card-element-5" fill="#607180" font-weight="400" font-size="22" text-anchor="middle" x="960" y="489">Align target responses</text></g></svg>